{"title":"Snow.Girl.and.the.Dark.Crystal.2015.BRRip.480p-VYTO [P2PDL]","uid":12191854,"size":447829285,"categoryP":"video","categoryS":"movies","magnet":"?xt=urn:btih:69d99b92bc35357f4236e8940cc490c79a34e2ea&amp;dn=Snow.Girl.and.the.Dark.Crystal.2015.BRRip.480p-VYTO+%5BP2PDL%5D&amp;tr=udp%3A%2F%2Ftracker.openbittorrent.com%3A80&amp;tr=udp%3A%2F%2Fopen.demonii.com%3A1337&amp;tr=udp%3A%2F%2Ftracker.coppersurfer.tk%3A6969&amp;tr=udp%3A%2F%2Fexodus.desync.com%3A6969","seeders":1,"leechers":0,"uploader":"ValidusVyto","files":7,"time":1438669748,"description":"____    ____ ____    ____ .___________.  ______   \n     /   /      /   / |           | /  __    \n    /   /      /   /  `---|  |----`|  |  |  | \n        /     _    _/       |  |     |  |  |  | \n       /        |  |         |  |     |  `--'  | \n    __/         |__|         |__|      ______/  \n                                                  \nPresenting Small Encodes with quality for years!\n                                                                                                   \n                                                                                                   \n\nSnow.Girl.and.the.Dark.Crystal.2015.BRRip.480p.x264.AAC-VYTO\n\n\nOriginal Title: Zhong Kui Fu Mo: Xue Yao Mo Ling\nGenre: Fantasy   &lt;a href=&quot;\nhttp://www.imdb.com/title/tt3585004/&quot; rel=&quot;nofollow&quot; target=&quot;_NEW&quot;&gt;\nhttp://www.imdb.com/title/tt3585004/&lt;/a&gt;\n\n\nGeneral\nFormat                         : MPEG-4\nFile size                      : 422 MiB\nDuration                       : 1h 57mn\nOverall bit rate               : 500 Kbps\n\nVideo\nFormat                         : AVC\nBit rate                       : 465 Kbps\nWidth                          : 720 pixels\nHeight                         : 304 pixels\nDisplay aspect ratio           : 2.35:1\nFrame rate mode                : Constant\nFrame rate                     : 24.000 fps\nBit depth                      : 8 bits\nStream size                    : 392 MiB (93%)\nWriting library                : x264 core 146 r2538 121396c\n\nAudio\nFormat                         : AAC\nBit rate                       : 32.0 Kbps\nChannel(s)                     : 2 channels\nChannel positions              : Front: L R \nSampling rate                  : 48.0 KHz\nStream size                    : 27.0 MiB (6%)\nLanguage                       : Chinese\n\nSubtitle                       : Yes\nSource                     \t   : LIMITED.720p.BluRay.x264-ROVERS\t\t\t\n\n\nScreenshots:\n &lt;a href=&quot;\nhttp://ititli.com/wr&quot; rel=&quot;nofollow&quot; target=&quot;_NEW&quot;&gt;\nhttp://ititli.com/wr&lt;/a&gt; &lt;a href=&quot;\nhttp://ititli.com/w1&quot; rel=&quot;nofollow&quot; target=&quot;_NEW&quot;&gt;\nhttp://ititli.com/w1&lt;/a&gt; &lt;a href=&quot;\nhttp://ititli.com/wT&quot; rel=&quot;nofollow&quot; target=&quot;_NEW&quot;&gt;\nhttp://ititli.com/wT&lt;/a&gt; &lt;a href=&quot;\nhttp://ititli.com/wW&quot; rel=&quot;nofollow&quot; target=&quot;_NEW&quot;&gt;\nhttp://ititli.com/wW&lt;/a&gt; &lt;a href=&quot;\nhttp://ititli.com/wg&quot; rel=&quot;nofollow&quot; target=&quot;_NEW&quot;&gt;\nhttp://ititli.com/wg&lt;/a&gt; &lt;a href=&quot;\nhttp://ititli.com/wn&quot; rel=&quot;nofollow&quot; target=&quot;_NEW&quot;&gt;\nhttp://ititli.com/wn&lt;/a&gt; &lt;a href=&quot;\nhttp://ititli.com/ww&quot; rel=&quot;nofollow&quot; target=&quot;_NEW&quot;&gt;\nhttp://ititli.com/ww&lt;/a&gt; &lt;a href=&quot;\nhttp://ititli.com/w2&quot; rel=&quot;nofollow&quot; target=&quot;_NEW&quot;&gt;\nhttp://ititli.com/w2&lt;/a&gt; &lt;a href=&quot;\nhttp://ititli.com/w6&quot; rel=&quot;nofollow&quot; target=&quot;_NEW&quot;&gt;\nhttp://ititli.com/w6&lt;/a&gt; &lt;a href=&quot;\nhttp://ititli.com/w8&quot; rel=&quot;nofollow&quot; target=&quot;_NEW&quot;&gt;\nhttp://ititli.com/w8&lt;/a&gt; &lt;a href=&quot;\nhttp://ititli.com/we&quot; rel=&quot;nofollow&quot; target=&quot;_NEW&quot;&gt;\nhttp://ititli.com/we&lt;/a&gt; &lt;a href=&quot;\nhttp://ititli.com/wj&quot; rel=&quot;nofollow&quot; target=&quot;_NEW&quot;&gt;\nhttp://ititli.com/wj&lt;/a&gt;\n\n----------------------------------------------------------------------------------------------------\n\n\nEncoder Notes: Looking For Early Access To Anything You Can Provide DVDScr, R5, DVDR, BluRay, Direct\nAudio, Music Releases and Seedboxes. If You Got anything to offer please contact us.\n\nSupport us by donating BC - 1FgwdzPsd1y25Gea8wP1qni35uGCtmkRCD","torrent":{"xt":"urn:btih:69d99b92bc35357f4236e8940cc490c79a34e2ea","amp;dn":"Snow.Girl.and.the.Dark.Crystal.2015.BRRip.480p-VYTO+%5BP2PDL%5D","amp;tr":["udp%3A%2F%2Ftracker.openbittorrent.com%3A80","udp%3A%2F%2Fopen.demonii.com%3A1337","udp%3A%2F%2Ftracker.coppersurfer.tk%3A6969","udp%3A%2F%2Fexodus.desync.com%3A6969"],"infoHash":"69d99b92bc35357f4236e8940cc490c79a34e2ea","infoHashBuffer":{"type":"Buffer","data":[105,217,155,146,188,53,53,127,66,54,232,148,12,196,144,199,154,52,226,234]},"announce":[],"urlList":[]}}